HIERARCHY
ROOT SpineBase
{
  OFFSET 0.000000 0.000000 0.000000
  CHANNELS 6 Xposition Yposition Zposition Zrotation Xrotation Yrotation
  JOINT SpineMid
  {
    OFFSET -0.000000 27.381527 0.000000
    CHANNELS 3 Zrotation Xrotation Yrotation
    JOINT SpineShoulder
    {
      OFFSET 0.023510 20.557106 -0.616150
      CHANNELS 3 Zrotation Xrotation Yrotation
      JOINT Neck
      {
        OFFSET 0.038224 6.897464 -0.504974
        CHANNELS 3 Zrotation Xrotation Yrotation
        JOINT Head
        {
          OFFSET 3.224227 13.914025 -0.159084
          CHANNELS 3 Zrotation Xrotation Yrotation
          End Site
          {
            OFFSET 0 0 0
          }
        }
      }
      JOINT ShoulderLeft
      {
        OFFSET -11.997962 1.180682 -9.510834
        CHANNELS 3 Zrotation Xrotation Yrotation
        JOINT ElbowLeft
        {
          OFFSET -2.368904 -20.083234 -9.728100
          CHANNELS 3 Zrotation Xrotation Yrotation
          JOINT WristLeft
          {
            OFFSET 10.137473 -14.563534 -12.440189
            CHANNELS 3 Zrotation Xrotation Yrotation
            JOINT HandLeft
            {
              OFFSET 2.007437 -2.256039 -3.598676
              CHANNELS 3 Zrotation Xrotation Yrotation
              JOINT HandTipLeft
              {
                OFFSET 1.550816 -0.837210 -3.714598
                CHANNELS 3 Zrotation Xrotation Yrotation
                End Site
                {
                  OFFSET 0 0 0
                }
              }
              JOINT ThumbLeft
              {
                OFFSET -2.869728 -2.190337 -2.588197
                CHANNELS 3 Zrotation Xrotation Yrotation
                End Site
                {
                  OFFSET 0 0 0
                }
              }
            }
          }
        }
      }
      JOINT ShoulderRight
      {
        OFFSET 14.944945 -3.881277 6.630201
        CHANNELS 3 Zrotation Xrotation Yrotation
        JOINT ElbowRight
        {
          OFFSET 7.450644 -24.268241 -3.956641
          CHANNELS 3 Zrotation Xrotation Yrotation
          JOINT WristRight
          {
            OFFSET 11.051304 -11.369192 -13.605880
            CHANNELS 3 Zrotation Xrotation Yrotation
            JOINT HandRight
            {
              OFFSET 0.147748 -4.445898 -4.455921
              CHANNELS 3 Zrotation Xrotation Yrotation
              JOINT HandTipRight
              {
                OFFSET 3.189594 -4.364043 -3.285812
                CHANNELS 3 Zrotation Xrotation Yrotation
                End Site
                {
                  OFFSET 0 0 0
                }
              }
              JOINT ThumbRight
              {
                OFFSET -2.394330 0.938241 -3.625590
                CHANNELS 3 Zrotation Xrotation Yrotation
                End Site
                {
                  OFFSET 0 0 0
                }
              }
            }
          }
        }
      }
    }
  }
  JOINT HipLeft
  {
    OFFSET -5.968954 1.755249 -6.910028
    CHANNELS 3 Zrotation Xrotation Yrotation
    JOINT KneeLeft
    {
      OFFSET 8.827030 5.581682 -31.015157
      CHANNELS 3 Zrotation Xrotation Yrotation
      JOINT AnkleLeft
      {
        OFFSET 4.524703 -33.994308 0.621206
        CHANNELS 3 Zrotation Xrotation Yrotation
        JOINT FootLeft
        {
          OFFSET -1.632360 -6.384703 -6.763151
          CHANNELS 3 Zrotation Xrotation Yrotation
          End Site
          {
            OFFSET 0 0 0
          }
        }
      }
    }
  }
  JOINT HipRight
  {
    OFFSET 7.075123 1.327172 0.872431
    CHANNELS 3 Zrotation Xrotation Yrotation
    JOINT KneeRight
    {
      OFFSET 23.944989 0.709698 -14.827473
      CHANNELS 3 Zrotation Xrotation Yrotation
      JOINT AnkleRight
      {
        OFFSET -11.154775 -32.132564 -11.353109
        CHANNELS 3 Zrotation Xrotation Yrotation
        JOINT FootRight
        {
          OFFSET 4.295464 -4.486783 -8.203910
          CHANNELS 3 Zrotation Xrotation Yrotation
          End Site
          {
            OFFSET 0 0 0
          }
        }
      }
    }
  }
}
MOTION
Frames: 6
Frame Time: 0.033333
-63.443511 35.667477 352.969474 0.000000 0.000000 -30.821477 -0.000000 0.000000 30.821477 -0.000000 0.000000 0.000000 -0.000000 0.000000 0.000000 0.000000 0.000000 0.000000 -0.000000 0.000000 0.000000 -0.000000 0.000000 0.000000 -0.000000 0.000000 0.000000 -0.000000 0.000000 0.000000 0.000000 0.000000 0.000000 0.000000 0.000000 0.000000 -0.000000 0.000000 0.000000 -0.000000 0.000000 0.000000 -0.000000 0.000000 0.000000 -0.000000 0.000000 0.000000 0.000000 0.000000 0.000000 0.000000 0.000000 0.000000 -0.000000 0.000000 30.821477 -0.000000 0.000000 0.000000 -0.000000 0.000000 0.000000 0.000000 0.000000 0.000000 -0.000000 0.000000 30.821477 -0.000000 0.000000 0.000000 -0.000000 0.000000 0.000000 0.000000 0.000000 0.000000
-63.504139 35.659610 353.022163 -0.032897 -0.123995 -30.700927 -0.035020 0.123412 30.700929 -0.000000 0.000000 0.000000 -0.000000 0.000000 0.000000 0.000000 0.000000 0.000000 -0.000000 0.000000 0.000000 0.948731 0.279400 -0.613433 -1.079786 -2.633491 -1.289798 -1.882472 -6.106161 -6.939981 0.000000 0.000000 0.000000 0.000000 0.000000 0.000000 -0.000000 0.000000 0.000000 -0.000000 0.000000 0.000000 -0.049456 0.828516 0.076903 0.048349 -0.828582 -0.076196 0.000000 0.000000 0.000000 0.000000 0.000000 0.000000 -0.035020 0.123412 30.700929 -0.000000 0.000000 0.000000 5.949141 3.419334 -7.217592 0.000000 0.000000 0.000000 -0.035020 0.123412 30.700929 -0.000000 0.000000 0.000000 0.105048 2.551371 2.158518 0.000000 0.000000 0.000000
-63.556357 35.655685 353.058965 -0.052126 -0.224415 -30.597698 -0.069361 0.219701 30.597729 -0.000000 0.000000 0.000000 -0.000000 0.000000 0.000000 0.000000 0.000000 0.000000 -0.000000 0.000000 0.000000 1.707499 0.462193 -1.128188 -1.974933 -4.477395 -2.055739 -3.221245 -9.255320 -11.345002 0.000000 0.000000 0.000000 0.000000 0.000000 0.000000 -0.000000 0.000000 0.000000 -0.000000 0.000000 0.000000 -0.030718 1.571016 0.082290 0.028473 -1.571058 -0.081479 0.000000 0.000000 0.000000 0.000000 0.000000 0.000000 -0.069361 0.219701 30.597729 -0.000000 0.000000 0.000000 10.534253 5.581077 -12.722135 0.000000 0.000000 0.000000 -0.069361 0.219701 30.597729 -0.000000 0.000000 0.000000 -0.076050 3.959880 3.701249 0.000000 0.000000 0.000000
-63.600167 35.655705 353.079880 -0.057693 -0.301293 -30.512061 -0.103269 0.288862 30.512170 -0.000000 0.000000 0.000000 -0.000000 0.000000 0.000000 0.000000 0.000000 0.000000 -0.000000 0.000000 0.000000 2.286832 0.556780 -1.549168 -2.687150 -5.703721 -2.429753 -4.109462 -11.044973 -14.580776 0.000000 0.000000 0.000000 0.000000 0.000000 0.000000 -0.000000 0.000000 0.000000 -0.000000 0.000000 0.000000 0.057727 2.226460 0.014734 -0.058344 -2.226444 -0.016989 0.000000 0.000000 0.000000 0.000000 0.000000 0.000000 -0.103269 0.288862 30.512170 -0.000000 0.000000 0.000000 13.507341 6.925563 -16.302561 0.000000 0.000000 0.000000 -0.103269 0.288862 30.512170 -0.000000 0.000000 0.000000 -0.470251 4.348600 4.730211 0.000000 0.000000 0.000000
-63.635568 35.659667 353.084907 -0.049597 -0.354645 -30.444224 -0.136941 0.330878 30.444466 -0.000000 0.000000 0.000000 -0.000000 0.000000 0.000000 0.000000 0.000000 0.000000 -0.000000 0.000000 0.000000 2.694162 0.568702 -1.880362 -3.226207 -6.416527 -2.487101 -4.700854 -12.185497 -17.325523 0.000000 0.000000 0.000000 0.000000 0.000000 0.000000 -0.000000 0.000000 0.000000 -0.378618 -0.821546 -0.352351 0.573754 3.618931 0.217740 -0.211003 -2.794287 0.116304 0.000000 0.000000 0.000000 0.000000 0.000000 0.000000 -0.136941 0.330878 30.444466 -0.000000 0.000000 0.000000 14.870999 7.803132 -18.004151 0.000000 0.000000 0.000000 -0.136941 0.330878 30.444466 -0.000000 0.000000 0.000000 -1.054707 3.763687 5.292426 0.000000 0.000000 0.000000
-63.662560 35.667573 353.074047 -0.027830 -0.384478 -30.394332 -0.170523 0.345717 30.394753 -0.000000 0.000000 0.000000 -0.000000 0.000000 0.000000 0.000000 0.000000 0.000000 -0.000000 0.000000 0.000000 2.933855 0.500900 -2.124749 -3.603454 -6.673398 -2.265110 -5.099272 -13.014035 -19.944016 0.000000 0.000000 0.000000 0.000000 0.000000 0.000000 -0.000000 0.000000 0.000000 -0.538592 -1.045161 -0.382241 0.958375 4.323576 0.022606 -0.428598 -3.274602 0.317600 0.000000 0.000000 0.000000 0.000000 0.000000 0.000000 -0.170523 0.345717 30.394753 -0.000000 0.000000 0.000000 14.661322 8.389456 -17.890753 0.000000 0.000000 0.000000 -0.170523 0.345717 30.394753 -0.000000 0.000000 0.000000 -1.846137 2.175479 5.385952 0.000000 0.000000 0.000000
